<?xml version="1.0" encoding="utf-8"?>
<svg version="1.1" xmlns:xlink="http://www.w3.org/1999/xlink" width="12px" height="12px" viewBox="225 239.5  12 12" xmlns="http://www.w3.org/2000/svg">
  <path d="M 231 239.5  C 234.36 239.5  237 242.14  237 245.5  C 237 248.86  234.36 251.5  231 251.5  C 227.64 251.5  225 248.86  225 245.5  C 225 242.14  227.64 239.5  231 239.5  Z " fill-rule="nonzero" fill="#f0f0f0" stroke="none" />
  <path d="M 231 240  C 234.08 240  236.5 242.42  236.5 245.5  C 236.5 248.58  234.08 251  231 251  C 227.92 251  225.5 248.58  225.5 245.5  C 225.5 242.42  227.92 240  231 240  Z " stroke-width="1" stroke="#797979" fill="none" />
  <path d="M 231 248.5  C 229.32 248.5  228 247.18  228 245.5  C 228 243.82  229.32 242.5  231 242.5  C 232.68 242.5  234 243.82  234 245.5  C 234 247.18  232.68 248.5  231 248.5  " fill-rule="nonzero" fill="#797979" stroke="none" />
</svg>