<?xml version="1.0" encoding="utf-8"?>
<svg version="1.1" xmlns:xlink="http://www.w3.org/1999/xlink" width="12px" height="12px" viewBox="332 239.5  12 12" xmlns="http://www.w3.org/2000/svg">
  <path d="M 338 239.5  C 341.36 239.5  344 242.14  344 245.5  C 344 248.86  341.36 251.5  338 251.5  C 334.64 251.5  332 248.86  332 245.5  C 332 242.14  334.64 239.5  338 239.5  Z " fill-rule="nonzero" fill="#f0f0f0" stroke="none" />
  <path d="M 338 240  C 341.08 240  343.5 242.42  343.5 245.5  C 343.5 248.58  341.08 251  338 251  C 334.92 251  332.5 248.58  332.5 245.5  C 332.5 242.42  334.92 240  338 240  Z " stroke-width="1" stroke="#797979" fill="none" />
  <path d="M 338 248.5  C 336.32 248.5  335 247.18  335 245.5  C 335 243.82  336.32 242.5  338 242.5  C 339.68 242.5  341 243.82  341 245.5  C 341 247.18  339.68 248.5  338 248.5  " fill-rule="nonzero" fill="#797979" stroke="none" />
</svg>