<?xml version="1.0" encoding="utf-8"?>
<svg version="1.1" xmlns:xlink="http://www.w3.org/1999/xlink" width="12px" height="12px" viewBox="240 850.5  12 12" xmlns="http://www.w3.org/2000/svg">
  <path d="M 246 850.5  C 249.36 850.5  252 853.14  252 856.5  C 252 859.86  249.36 862.5  246 862.5  C 242.64 862.5  240 859.86  240 856.5  C 240 853.14  242.64 850.5  246 850.5  Z " fill-rule="nonzero" fill="#ffffff" stroke="none" />
  <path d="M 246 851  C 249.08 851  251.5 853.42  251.5 856.5  C 251.5 859.58  249.08 862  246 862  C 242.92 862  240.5 859.58  240.5 856.5  C 240.5 853.42  242.92 851  246 851  Z " stroke-width="1" stroke="#797979" fill="none" />
  <path d="M 246 859.5  C 244.32 859.5  243 858.18  243 856.5  C 243 854.82  244.32 853.5  246 853.5  C 247.68 853.5  249 854.82  249 856.5  C 249 858.18  247.68 859.5  246 859.5  " fill-rule="nonzero" fill="#797979" stroke="none" />
</svg>