<?xml version="1.0" encoding="utf-8"?>
<svg version="1.1" xmlns:xlink="http://www.w3.org/1999/xlink" width="12px" height="12px" viewBox="358 850.5  12 12" xmlns="http://www.w3.org/2000/svg">
  <path d="M 364 850.5  C 367.36 850.5  370 853.14  370 856.5  C 370 859.86  367.36 862.5  364 862.5  C 360.64 862.5  358 859.86  358 856.5  C 358 853.14  360.64 850.5  364 850.5  Z " fill-rule="nonzero" fill="#ffffff" stroke="none" />
  <path d="M 364 851  C 367.08 851  369.5 853.42  369.5 856.5  C 369.5 859.58  367.08 862  364 862  C 360.92 862  358.5 859.58  358.5 856.5  C 358.5 853.42  360.92 851  364 851  Z " stroke-width="1" stroke="#797979" fill="none" />
  <path d="M 364 859.5  C 362.32 859.5  361 858.18  361 856.5  C 361 854.82  362.32 853.5  364 853.5  C 365.68 853.5  367 854.82  367 856.5  C 367 858.18  365.68 859.5  364 859.5  " fill-rule="nonzero" fill="#797979" stroke="none" />
</svg>