<?xml version="1.0" encoding="utf-8"?>
<svg version="1.1" xmlns:xlink="http://www.w3.org/1999/xlink" width="12px" height="12px" viewBox="240 782.5  12 12" xmlns="http://www.w3.org/2000/svg">
  <path d="M 246 782.5  C 249.36 782.5  252 785.14  252 788.5  C 252 791.86  249.36 794.5  246 794.5  C 242.64 794.5  240 791.86  240 788.5  C 240 785.14  242.64 782.5  246 782.5  Z " fill-rule="nonzero" fill="#f0f0f0" stroke="none" />
  <path d="M 246 783  C 249.08 783  251.5 785.42  251.5 788.5  C 251.5 791.58  249.08 794  246 794  C 242.92 794  240.5 791.58  240.5 788.5  C 240.5 785.42  242.92 783  246 783  Z " stroke-width="1" stroke="#797979" fill="none" />
  <path d="M 246 791.5  C 244.32 791.5  243 790.18  243 788.5  C 243 786.82  244.32 785.5  246 785.5  C 247.68 785.5  249 786.82  249 788.5  C 249 790.18  247.68 791.5  246 791.5  " fill-rule="nonzero" fill="#797979" stroke="none" />
</svg>