<?xml version="1.0" encoding="utf-8"?>
<svg version="1.1" xmlns:xlink="http://www.w3.org/1999/xlink" width="12px" height="12px" viewBox="358 782.5  12 12" xmlns="http://www.w3.org/2000/svg">
  <path d="M 364 782.5  C 367.36 782.5  370 785.14  370 788.5  C 370 791.86  367.36 794.5  364 794.5  C 360.64 794.5  358 791.86  358 788.5  C 358 785.14  360.64 782.5  364 782.5  Z " fill-rule="nonzero" fill="#ffffff" stroke="none" />
  <path d="M 364 783  C 367.08 783  369.5 785.42  369.5 788.5  C 369.5 791.58  367.08 794  364 794  C 360.92 794  358.5 791.58  358.5 788.5  C 358.5 785.42  360.92 783  364 783  Z " stroke-width="1" stroke="#797979" fill="none" />
  <path d="M 364 791.5  C 362.32 791.5  361 790.18  361 788.5  C 361 786.82  362.32 785.5  364 785.5  C 365.68 785.5  367 786.82  367 788.5  C 367 790.18  365.68 791.5  364 791.5  " fill-rule="nonzero" fill="#797979" stroke="none" />
</svg>