<?xml version="1.0" encoding="utf-8"?>
<svg version="1.1" xmlns:xlink="http://www.w3.org/1999/xlink" width="12px" height="12px" viewBox="328 169.5  12 12" xmlns="http://www.w3.org/2000/svg">
  <path d="M 334 169.5  C 337.36 169.5  340 172.14  340 175.5  C 340 178.86  337.36 181.5  334 181.5  C 330.64 181.5  328 178.86  328 175.5  C 328 172.14  330.64 169.5  334 169.5  Z " fill-rule="nonzero" fill="#f0f0f0" stroke="none" />
  <path d="M 334 170  C 337.08 170  339.5 172.42  339.5 175.5  C 339.5 178.58  337.08 181  334 181  C 330.92 181  328.5 178.58  328.5 175.5  C 328.5 172.42  330.92 170  334 170  Z " stroke-width="1" stroke="#797979" fill="none" />
  <path d="M 334 178.5  C 332.32 178.5  331 177.18  331 175.5  C 331 173.82  332.32 172.5  334 172.5  C 335.68 172.5  337 173.82  337 175.5  C 337 177.18  335.68 178.5  334 178.5  " fill-rule="nonzero" fill="#797979" stroke="none" />
</svg>