<?xml version="1.0" encoding="utf-8"?>
<svg version="1.1" xmlns:xlink="http://www.w3.org/1999/xlink" width="12px" height="12px" viewBox="221 169.5  12 12" xmlns="http://www.w3.org/2000/svg">
  <path d="M 227 169.5  C 230.36 169.5  233 172.14  233 175.5  C 233 178.86  230.36 181.5  227 181.5  C 223.64 181.5  221 178.86  221 175.5  C 221 172.14  223.64 169.5  227 169.5  Z " fill-rule="nonzero" fill="#ffffff" stroke="none" />
  <path d="M 227 170  C 230.08 170  232.5 172.42  232.5 175.5  C 232.5 178.58  230.08 181  227 181  C 223.92 181  221.5 178.58  221.5 175.5  C 221.5 172.42  223.92 170  227 170  Z " stroke-width="1" stroke="#797979" fill="none" />
  <path d="M 227 178.5  C 225.32 178.5  224 177.18  224 175.5  C 224 173.82  225.32 172.5  227 172.5  C 228.68 172.5  230 173.82  230 175.5  C 230 177.18  228.68 178.5  227 178.5  " fill-rule="nonzero" fill="#797979" stroke="none" />
</svg>