<?xml version="1.0" encoding="utf-8"?>
<svg version="1.1" xmlns:xlink="http://www.w3.org/1999/xlink" width="57px" height="75px" xmlns="http://www.w3.org/2000/svg">
  <g transform="matrix(1 0 0 1 -25 -191 )">
    <path d="M 25 191  L 82 191  L 82 266  L 25 266  L 25 191  " fill-rule="nonzero" fill="#cccccc" stroke="none" />
    <path d="M 29 195  L 78 195  L 78 262  L 29 262  L 29 195  " fill-rule="nonzero" fill="#ffffff" stroke="none" />
    <path d="M 58.915 210.8  C 56.521 210.8  54.64 208.919  54.64 206.525  C 54.64 204.131  56.521 202.25  58.915 202.25  C 61.309 202.25  63.19 204.131  63.19 206.525  C 63.19 208.919  61.309 210.8  58.915 210.8  " fill-rule="nonzero" fill="#cccccc" stroke="none" />
    <path d="M 31 261  L 31 225.8  L 42.5 209.8  L 58.6 222.6  L 67.8 219.4  L 77 222.6  L 77 261  L 31 261  " fill-rule="nonzero" fill="#169bd5" stroke="none" />
  </g>
</svg>