<?xml version="1.0" encoding="utf-8"?>
<svg version="1.1" xmlns:xlink="http://www.w3.org/1999/xlink" width="40px" height="21px" xmlns="http://www.w3.org/2000/svg">
  <g transform="matrix(1 0 0 1 -311 -191 )">
    <path d="M 0 20  L 0 1  L 40 1  L 40 20  L 0 20  Z M 7.795 6.60770833333333  L 6.3325 6.60770833333333  L 6.3325 15.4583333333333  L 7.795 15.4583333333333  L 7.795 8.98770833333333  L 7.845 8.98770833333333  L 12.3075 15.4583333333333  L 13.7325 15.4583333333333  L 13.7325 6.60770833333333  L 12.2575 6.60770833333333  L 12.2575 12.9915625  L 12.2075 12.9915625  L 7.795 6.60770833333333  Z M 15.4775 6.60770833333333  L 15.4825 6.60770833333333  L 15.4825 15.4583333333333  L 22.1325 15.4583333333333  L 22.1325 14.21875  L 16.9425 14.21875  L 16.9425 11.54125  L 21.6175 11.54125  L 21.6175 10.3016666666667  L 16.9425 10.3016666666667  L 16.9425 7.84729166666667  L 21.9175 7.84729166666667  L 21.9175 6.60770833333333  L 15.4775 6.60770833333333  Z M 24.345 6.60770833333333  L 22.695 6.60770833333333  L 25.255 15.4583333333333  L 26.8175 15.4583333333333  L 28.5675 8.80177083333333  L 28.6175 8.80177083333333  L 30.3575 15.4583333333333  L 31.9075 15.4583333333333  L 34.4825 6.60770833333333  L 32.8325 6.60770833333333  L 31.1575 13.3386458333333  L 31.1075 13.3386458333333  L 29.345 6.60770833333333  L 27.8325 6.60770833333333  L 26.07 13.3386458333333  L 26.02 13.3386458333333  L 24.345 6.60770833333333  Z " fill-rule="nonzero" fill="#f60a0a" stroke="none" transform="matrix(1 0 0 1 311 191 )" />
  </g>
</svg>