<?xml version="1.0" encoding="utf-8"?>
<svg version="1.1" xmlns:xlink="http://www.w3.org/1999/xlink" width="36px" height="36px" xmlns="http://www.w3.org/2000/svg">
  <g transform="matrix(1 0 0 1 -21 -25 )">
    <path d="M 39 25  C 49.08 25  57 32.92  57 43  C 57 53.08  49.08 61  39 61  C 28.92 61  21 53.08  21 43  C 21 32.92  28.92 25  39 25  Z " fill-rule="nonzero" fill="#ffffff" stroke="none" />
    <path d="M 39 25.5  C 48.8 25.5  56.5 33.2  56.5 43  C 56.5 52.8  48.8 60.5  39 60.5  C 29.2 60.5  21.5 52.8  21.5 43  C 21.5 33.2  29.2 25.5  39 25.5  Z " stroke-width="1" stroke="#797979" fill="none" />
  </g>
</svg>