<?xml version="1.0" encoding="utf-8"?>
<svg version="1.1" xmlns:xlink="http://www.w3.org/1999/xlink" width="16px" height="16px" xmlns="http://www.w3.org/2000/svg">
  <g transform="matrix(1 0 0 1 -21 -55 )">
    <path d="M 4.66893939453125 1.8800505078125  C 5.31565982902446 1.60648382915115  6.01093194509586 1.46622696079016  6.71313130859375 1.46767677734375  C 9.4 1.47196970703125  11.6469696875 3.51060607421875  11.9116161523437 6.1843434375  C 12.1765151367187 8.8580808203125  10.3729797851562 11.2979798046875  7.7393939453125 11.8290404101562  C 5.10555556640625 12.3603535351562  2.49747474609375 10.8103535351562  1.70530302734375 8.242929296875  C 0.91313130859375 5.67550505859375  2.19393939453125 2.92550505859375  4.66893939453125 1.8800505078125  Z M 13.1777777734375 6.72020201171875  C 13.1777777734375 3.15  10.2833333203125 0.255555546875001  6.71313130859375 0.255555546875  C 3.142929296875 0.255555546875  0.24848484375 3.15  0.24848484375 6.72020201171875  C 0.24848484375 10.2904040234375  3.142929296875 13.1848484765625  6.71313130859375 13.1848484765625  C 10.2833333203125 13.1848484765625  13.1777777734375 10.2904040234375  13.1777777734375 6.72020201171875  Z M 15.6969696875 15.3760100976563  C 15.6034328421527 15.602601273226  15.38251185255 15.7504468684845  15.1373737304687 15.7505050585938  C 14.9765253241125 15.7508217329114  14.8222276457197 15.6868113761815  14.7088383789063 15.572727265625  L 11.6381313085938 12.5020201953125  C 11.408585859375 12.26414140625  11.4118686914062 11.8861111132813  11.6454545507813 11.652272734375  C 11.8792929296875 11.4184343554688  12.2573232421875 11.4151515234375  12.4949494921875 11.6449494921875  L 15.5656565625 14.7156565625  C 15.7388820688531 14.8889967568309  15.7907007322776 15.1495848555412  15.6969696875 15.3760100976563  Z " fill-rule="nonzero" fill="#bbbbbb" stroke="none" transform="matrix(1 0 0 1 21 55 )" />
  </g>
</svg>