<?xml version="1.0" encoding="utf-8"?>
<svg version="1.1" xmlns:xlink="http://www.w3.org/1999/xlink" width="85px" height="111px" xmlns="http://www.w3.org/2000/svg">
  <g transform="matrix(1 0 0 1 -10 -53 )">
    <path d="M 10 53  L 95 53  L 95 164  L 10 164  L 10 53  " fill-rule="nonzero" fill="#cccccc" stroke="none" />
    <path d="M 16 59  L 89 59  L 89 158  L 16 158  L 16 59  " fill-rule="nonzero" fill="#ffffff" stroke="none" />
    <path d="M 60.575 82.4  C 57.005 82.4  54.2 79.595  54.2 76.025  C 54.2 72.455  57.005 69.65  60.575 69.65  C 64.145 69.65  66.95 72.455  66.95 76.025  C 66.95 79.595  64.145 82.4  60.575 82.4  " fill-rule="nonzero" fill="#cccccc" stroke="none" />
    <path d="M 18 156  L 18 103.75  L 35.25 80  L 59.4 99  L 73.2 94.25  L 87 99  L 87 156  L 18 156  " fill-rule="nonzero" fill="#169bd5" stroke="none" />
  </g>
</svg>